<svg width="511" height="511" viewBox="0 0 511 511" fill="none" xmlns="http://www.w3.org/2000/svg">
<g clip-path="url(#clip0)">
<path d="M509.645 196.623C505.778 184.712 494.249 176.529 478.023 174.17L345.77 154.95L286.624 35.114C279.368 20.4083 268.023 11.9756 255.501 11.9756C242.979 11.9756 231.633 20.4083 224.374 35.114L165.236 154.95L32.9747 174.17C16.7485 176.529 5.22028 184.712 1.35283 196.623C-2.51461 208.533 2.00001 221.929 13.7427 233.371L109.446 326.654L86.8499 458.377C83.961 475.223 88.885 485.321 93.5244 490.821C98.9707 497.278 106.904 500.833 115.871 500.833C122.624 500.833 129.801 498.86 137.209 494.966L255.501 432.775L373.797 494.966C381.205 498.86 388.382 500.833 395.131 500.837H395.134C404.101 500.837 412.039 497.278 417.481 490.821C422.121 485.321 427.045 475.223 424.152 458.377L401.563 326.654L497.259 233.375C509.002 221.929 513.516 208.533 509.645 196.623V196.623ZM476.362 211.933L375.029 310.708C371.501 314.147 369.891 319.106 370.725 323.96L394.643 463.441C395.341 467.5 395.041 469.804 394.764 470.88C393.696 470.81 391.403 470.397 387.731 468.467L262.468 402.611C260.285 401.465 257.895 400.892 255.501 400.892C253.107 400.892 250.713 401.465 248.534 402.611L123.279 468.463C119.606 470.393 117.31 470.81 116.242 470.88C115.969 469.804 115.665 467.5 116.363 463.441L140.288 323.964C141.119 319.106 139.509 314.147 135.98 310.712L34.6433 211.933C31.6959 209.059 30.5848 207.02 30.1715 205.987C31.1111 205.395 33.2086 204.397 37.2827 203.804L177.333 183.453C182.21 182.744 186.425 179.679 188.604 175.262L251.228 48.3654C253.053 44.6734 254.647 42.9892 255.505 42.2758C256.359 42.9892 257.957 44.6734 259.778 48.3654L322.405 175.262C324.589 179.679 328.803 182.744 333.68 183.453L473.719 203.804C477.797 204.397 479.891 205.395 480.83 205.987C480.417 207.016 479.31 209.059 476.362 211.933V211.933Z" fill="#B164AE"/>
</g>
<defs>
<clipPath id="clip0">
<rect width="511" height="511" fill="white"/>
</clipPath>
</defs>
</svg>
