<svg width="512" height="512" viewBox="0 0 512 512" fill="none" xmlns="http://www.w3.org/2000/svg">
<g clip-path="url(#clip0)">
<path d="M415.157 86.566L321.257 113.431C321.153 113.465 321.049 113.499 320.945 113.535C310.904 117.028 304.157 126.517 304.157 137.149V164.372H211.367L317.418 58.322C323.276 52.464 323.276 42.967 317.418 37.109L290.546 10.236C276.899 -3.412 254.693 -3.412 241.046 10.236L213.415 37.867L199.271 23.723C183.675 8.126 158.297 8.126 142.699 23.723L87.5401 78.882C71.9441 94.479 71.9441 119.857 87.5401 135.454L101.684 149.598L74.0531 177.229C60.4061 190.876 60.4061 213.082 74.0531 226.729L100.925 253.601C106.782 259.459 116.281 259.46 122.139 253.601L160.161 215.579V446.996C160.161 482.839 189.322 512 225.165 512H383.177C419.02 512 448.181 482.839 448.181 446.996C448.181 436.43 448.181 115.198 448.181 110.245C448.182 93.165 431.365 81.074 415.157 86.566V86.566ZM108.754 100.095L163.912 44.937C167.811 41.038 174.156 41.037 178.057 44.937L192.2 59.081L122.898 128.383L108.754 114.24C104.855 110.34 104.855 103.995 108.754 100.095V100.095ZM111.533 221.78L95.2671 205.515C93.3171 203.565 93.3171 200.392 95.2671 198.442C105.762 187.947 256.883 36.827 262.26 31.45C264.211 29.5 267.382 29.5 269.333 31.45L285.598 47.716L111.533 221.78ZM418.181 446.996C418.181 466.297 402.478 481.999 383.178 481.999H225.166C205.865 481.999 190.163 466.296 190.163 446.996V194.374H418.181V446.996ZM418.181 165.18L334.159 164.373V140.79L418.181 117.12V165.18Z" fill="#B164AE"/>
<path d="M237.431 442.995C245.715 442.995 252.431 436.279 252.431 427.995V248.378C252.431 240.094 245.715 233.378 237.431 233.378C229.147 233.378 222.431 240.094 222.431 248.378V427.994C222.43 436.279 229.146 442.995 237.431 442.995Z" fill="#B164AE"/>
<path d="M304.172 442.995C312.456 442.995 319.172 436.279 319.172 427.995V248.378C319.172 240.094 312.456 233.378 304.172 233.378C295.888 233.378 289.172 240.094 289.172 248.378V427.994C289.171 436.279 295.887 442.995 304.172 442.995Z" fill="#B164AE"/>
<path d="M370.912 442.995C379.196 442.995 385.912 436.279 385.912 427.995V248.378C385.912 240.094 379.196 233.378 370.912 233.378C362.628 233.378 355.912 240.094 355.912 248.378V427.994C355.912 436.279 362.628 442.995 370.912 442.995Z" fill="#B164AE"/>
</g>
<defs>
<clipPath id="clip0">
<rect width="512" height="512" fill="white"/>
</clipPath>
</defs>
</svg>
