<svg width="512" height="512" viewBox="0 0 512 512" fill="none" xmlns="http://www.w3.org/2000/svg">
<g clip-path="url(#clip0)">
<path d="M362 392V432C362 476.113 326.113 512 282 512H81C36.8867 512 1 476.113 1 432V80C1 35.8867 36.8867 0 81 0H282C326.113 0 362 35.8867 362 80V120C362 131.047 353.047 140 342 140C330.953 140 322 131.047 322 120V80C322 57.9453 304.055 40 282 40H81C58.9453 40 41 57.9453 41 80V432C41 454.055 58.9453 472 81 472H282C304.055 472 322 454.055 322 432V392C322 380.953 330.953 372 342 372C353.047 372 362 380.953 362 392ZM498.355 221.645L453.57 176.859C445.758 169.047 433.094 169.047 425.285 176.859C417.473 184.668 417.473 197.332 425.285 205.141L457.141 237H217C205.953 237 197 245.953 197 257C197 268.047 205.953 277 217 277H457.141L425.285 308.859C417.473 316.668 417.473 329.332 425.285 337.141C429.191 341.047 434.309 343 439.426 343C444.547 343 449.664 341.047 453.57 337.141L498.355 292.355C517.852 272.859 517.852 241.141 498.355 221.645V221.645Z" fill="#B164AE"/>
</g>
<defs>
<clipPath id="clip0">
<rect width="512" height="512" fill="white"/>
</clipPath>
</defs>
</svg>
