<svg width="151" height="137" viewBox="0 0 151 137" fill="none" xmlns="http://www.w3.org/2000/svg">
<path d="M132.841 49.4833V32.0016H137.748C144.693 32.0016 150.322 37.6313 150.322 44.5762V49.4833H145.415C138.471 49.4833 132.841 49.4833 132.841 49.4833Z" fill="#C94C93"/>
<path d="M101.992 7.62296L11.4174 98.2011C8.7317 100.887 10.6338 105.479 14.4319 105.479L82.6921 105.48C114.752 105.48 140.741 79.4911 140.741 47.4317V23.6729C140.741 11.1368 130.579 0.974426 118.043 0.974426C112.023 0.974426 106.249 3.36603 101.992 7.62296Z" fill="#FFD0FD"/>
<path d="M0.0669556 130.45C7.65521 137.946 19.8715 137.908 27.4134 130.366L88.9843 68.7951L75.3529 55.1638L0.0669556 130.45Z" fill="#9A4497"/>
<path d="M4.15826 105.458C28.6215 119.411 59.4628 115.21 79.3768 95.2964C97.3417 77.3314 97.4092 48.1371 79.4446 30.1721L4.15826 105.458Z" fill="#9A4497"/>
<path d="M12.8123 96.7038C30.2105 97.7211 47.7338 91.4443 60.6727 78.5054L60.8079 78.3702C72.2246 66.9535 76.3859 51.0289 73.2919 36.3263L12.8123 96.7038Z" fill="#B164AE"/>
<path d="M119.959 24.0401C119.385 24.6102 119.06 25.4015 119.06 26.2081C119.06 27.015 119.385 27.806 119.959 28.3765C120.529 28.9469 121.32 29.2751 122.127 29.2751C122.934 29.2751 123.722 28.9472 124.295 28.3765C124.866 27.806 125.194 27.015 125.194 26.2081C125.194 25.4015 124.866 24.6102 124.295 24.0401C123.725 23.4696 122.934 23.1412 122.127 23.1412C121.32 23.1412 120.529 23.4696 119.959 24.0401Z" fill="black"/>
</svg>
