<svg width="446" height="512" viewBox="0 0 446 512" fill="none" xmlns="http://www.w3.org/2000/svg">
<path d="M350.617 222.801C403.184 222.801 445.949 180.035 445.949 127.469C445.949 74.8984 403.184 32.1328 350.617 32.1328C313.809 32.1328 281.809 53.1055 265.93 83.7227C254.941 77.6641 243.332 72.9844 231.301 69.7305C234.984 63.0156 237.082 55.3164 237.082 47.1328C237.082 21.1445 215.938 0 189.949 0C163.961 0 142.816 21.1445 142.816 47.1328C142.816 55.332 144.926 63.0469 148.621 69.7695C81.582 87.9766 32.1328 149.359 32.1328 222.082V355.914C13.4766 362.191 0 379.852 0 400.602C0 426.59 21.1445 447.734 47.1328 447.734H112.125C119.156 484.289 151.371 512 189.949 512C228.527 512 260.738 484.289 267.773 447.734H332.766C358.754 447.734 379.898 426.59 379.898 400.602C379.898 379.852 366.422 362.191 347.766 355.914V222.754C348.711 222.781 349.66 222.801 350.617 222.801V222.801ZM350.617 62.1328C386.641 62.1328 415.949 91.4414 415.949 127.469C415.949 163.492 386.641 192.801 350.617 192.801C314.59 192.801 285.281 163.492 285.281 127.469C285.281 91.4414 314.59 62.1328 350.617 62.1328V62.1328ZM189.949 30C199.395 30 207.082 37.6875 207.082 47.1328C207.082 56.582 199.398 64.2656 189.949 64.2656C180.5 64.2656 172.816 56.582 172.816 47.1328C172.816 37.6875 180.504 30 189.949 30ZM189.949 482C168.012 482 149.375 467.586 143.016 447.734H236.883C230.523 467.586 211.887 482 189.949 482ZM317.766 222.082V368.469C317.766 376.75 324.48 383.469 332.766 383.469C342.211 383.469 349.898 391.152 349.898 400.602C349.898 410.047 342.215 417.734 332.766 417.734H47.1328C37.6836 417.734 30 410.051 30 400.602C30 391.152 37.6836 383.469 47.1328 383.469C55.418 383.469 62.1328 376.75 62.1328 368.469V222.082C62.1328 151.605 119.473 94.2656 189.949 94.2656C213.645 94.2656 236.422 100.676 256.398 112.879C255.664 117.637 255.281 122.508 255.281 127.469C255.281 168.449 281.281 203.477 317.648 216.922C317.719 218.645 317.766 220.363 317.766 222.082V222.082Z" fill="#B164AE"/>
</svg>
