<svg width="512" height="464" viewBox="0 0 512 464" fill="none" xmlns="http://www.w3.org/2000/svg">
<path d="M413.062 204.789C443.582 184.895 463.801 150.469 463.801 111.398C463.801 49.9727 413.828 0 352.402 0C311.285 0 275.301 22.3945 256 55.625C236.699 22.3945 200.719 0 159.602 0C98.1758 0 48.1992 49.9727 48.1992 111.398C48.1992 150.469 68.418 184.895 98.9375 204.789C40.9336 228.715 0 285.863 0 352.402V408.633C0 439.055 24.75 463.801 55.168 463.801H456.832C487.254 463.801 512 439.055 512 408.637V352.402C512 285.863 471.066 228.715 413.062 204.789V204.789ZM352.402 30C397.285 30 433.801 66.5156 433.801 111.398C433.801 156.285 397.285 192.801 352.402 192.801C307.516 192.801 271 156.285 271 111.398C271 66.5156 307.516 30 352.402 30ZM255.945 225.25C245.055 216.977 233.078 210.074 220.266 204.789C234.918 195.238 247.195 182.336 256 167.18C264.801 182.328 277.07 195.223 291.711 204.773C279.02 209.992 266.996 216.859 255.945 225.25V225.25ZM78.1992 111.398C78.1992 66.5156 114.715 30 159.602 30C204.484 30 241 66.5156 241 111.398C241 156.285 204.484 192.801 159.602 192.801C114.715 192.801 78.1992 156.285 78.1992 111.398ZM247.965 433.801H55.168C41.2891 433.801 30 422.512 30 408.637V352.402C30 280.938 88.1406 222.801 159.602 222.801C231.062 222.801 289.203 280.941 289.203 352.402V408.637C289.203 422.512 277.91 433.801 264.035 433.801H247.965ZM482 408.637C482 422.512 470.711 433.801 456.832 433.801H313.102C316.992 426.25 319.203 417.699 319.203 408.637V352.402C319.203 311.551 303.766 274.238 278.434 245.98C300.035 230.949 325.781 222.801 352.402 222.801C423.863 222.801 482 280.938 482 352.402V408.637Z" fill="#B164AE"/>
</svg>
